<svg aria-hidden="true" style="width:0;height:0;position:absolute;overflow:hidden" xmlns="http://www.w3.org/2000/svg"><defs><symbol id="icon-logo" viewBox="0 0 32 32"><path fill="#f6f6f6" style="fill:var(--color1,#f6f6f6)" d="m0 0 16.343 16.172L32 32V0H0z"/><path fill="#f6f6f6" style="fill:var(--color1,#f6f6f6)" d="M4.457 4.228 16.4 16.057l11.257 11.485h-23.2V4.227z"/><path fill="#4f2ee8" style="fill:var(--color2,#4f2ee8)" d="M27.733 27.619 15.789 15.79 4.533 4.305h23.2V27.62z"/><path fill="#4f2ee8" style="fill:var(--color2,#4f2ee8)" d="m9.256 9.028 13.6 13.601h-13.6v-13.6z"/><path fill="#f6f6f6" style="fill:var(--color1,#f6f6f6)" d="m9.256 9.028 13.6 13.601v-13.6h-13.6z"/></symbol><symbol id="icon-x-close" viewBox="0 0 32 32"><path stroke-linejoin="round" stroke-linecap="round" stroke-width="3.333" d="M24 8 8 24M8 8l16 16"/></symbol><symbol id="icon-trash" viewBox="0 0 32 32"><path stroke-linejoin="round" stroke-linecap="round" stroke-width="2" d="M12 4h8M4 8h24m-2.666 0-.936 14.026c-.14 2.104-.21 3.156-.664 3.954a4.03 4.03 0 0 1-1.709 1.61l-.023.01c-.826.4-1.88.4-3.99.4h-4.024c-2.11 0-3.164 0-3.99-.4a4.03 4.03 0 0 1-1.722-1.601l-.01-.019c-.454-.798-.524-1.85-.664-3.954L6.666 8m6.668 6v6.666M18.666 14v6.666"/></symbol><symbol id="icon-dubble-angle" viewBox="0 0 41 32"><path d="M17.868 16.945a1.332 1.332 0 0 0 0-1.89l-6.119-6.109a1.334 1.334 0 1 1 1.879-1.892l.001.001 6.121 6.119c.723.724 1.169 1.723 1.169 2.826s-.447 2.103-1.169 2.826l-6.121 6.121a1.334 1.334 0 1 1-1.88-1.894l6.119-6.106z"/><path d="M26.595 16.945a1.332 1.332 0 0 0 0-1.89l-6.119-6.109a1.333 1.333 0 0 1 1.88-1.89l6.121 6.119c.723.724 1.169 1.723 1.169 2.826s-.447 2.103-1.169 2.826l-6.121 6.121a1.334 1.334 0 1 1-1.88-1.894l6.119-6.106z"/></symbol><symbol id="icon-angle" viewBox="0 0 32 32"><path d="M15.053 17.867a1.333 1.333 0 0 0 1.894 0l6.106-6.12a1.334 1.334 0 1 1 1.894 1.88l-6.12 6.12c-.724.723-1.723 1.17-2.827 1.17s-2.103-.447-2.827-1.17l-6.12-6.12a1.334 1.334 0 1 1 1.894-1.88l6.106 6.12z"/></symbol><symbol id="icon-arrow" viewBox="0 0 32 32"><path stroke-linejoin="round" stroke-linecap="round" stroke-width="3.2" d="M5.333 16h21.333m0 0-8-8m8 8-8 8"/></symbol><symbol id="icon-cart" viewBox="0 0 32 32"><path d="M25.333 9.333h-4V8a5.334 5.334 0 1 0-10.668 0v1.333h-4c-.736 0-1.333.597-1.333 1.333V25.334a4 4 0 0 0 4 4h13.333a4 4 0 0 0 4-4V10.668c0-.736-.597-1.334-1.333-1.334zM13.333 8l-.001-.065a2.667 2.667 0 1 1 5.334 0l-.001.069v-.003 1.333h-5.333V8.001zM24 25.333v.002c0 .736-.597 1.333-1.333 1.333H9.332a1.333 1.333 0 0 1-1.333-1.333V12h2.666v1.333a1.334 1.334 0 1 0 2.668 0V12h5.333v1.333a1.334 1.334 0 1 0 2.668 0V12h2.667v13.333z"/></symbol><symbol id="icon-burger" viewBox="0 0 32 32"><path stroke-linejoin="round" stroke-linecap="round" stroke-width="2.286" d="M22.666 13.334H4M28 8H4m24 10.666H4M22.666 24H4"/></symbol></defs></svg>