<svg aria-hidden="true" style="width:0;height:0;position:absolute;overflow:hidden" xmlns="http://www.w3.org/2000/svg"><defs><symbol id="icon-logo" viewBox="0 0 32 32"><path fill="#f6f6f6" style="fill:var(--color1,#f6f6f6)" d="m0 0 16.343 16.172L32 32V0H0z"/><path fill="#f6f6f6" style="fill:var(--color1,#f6f6f6)" d="M4.457 4.228 16.4 16.057l11.257 11.485h-23.2V4.227z"/><path fill="#4f2ee8" style="fill:var(--color2,#4f2ee8)" d="M27.733 27.619 15.789 15.79 4.533 4.305h23.2V27.62z"/><path fill="#4f2ee8" style="fill:var(--color2,#4f2ee8)" d="m9.256 9.028 13.6 13.601h-13.6v-13.6z"/><path fill="#f6f6f6" style="fill:var(--color1,#f6f6f6)" d="m9.256 9.028 13.6 13.601v-13.6h-13.6z"/></symbol><symbol id="icon-x-close" viewBox="0 0 32 32"><path stroke-linejoin="round" stroke-linecap="round" stroke-width="3.333" d="M24 8 8 24M8 8l16 16"/></symbol><symbol id="icon-trash" viewBox="0 0 32 32"><path stroke-linejoin="round" stroke-linecap="round" stroke-width="2" d="M12 4h8M4 8h24m-2.666 0-.936 14.026c-.14 2.104-.21 3.156-.664 3.954a4.03 4.03 0 0 1-1.709 1.61l-.023.01c-.826.4-1.88.4-3.99.4h-4.024c-2.11 0-3.164 0-3.99-.4a4.03 4.03 0 0 1-1.722-1.601l-.01-.019c-.454-.798-.524-1.85-.664-3.954L6.666 8m6.668 6v6.666M18.666 14v6.666"/></symbol><symbol id="icon-dubble-angle" viewBox="0 0 41 32"><path d="M17.868 16.945a1.332 1.332 0 0 0 0-1.89l-6.119-6.109a1.334 1.334 0 1 1 1.879-1.892l.001.001 6.121 6.119c.723.724 1.169 1.723 1.169 2.826s-.447 2.103-1.169 2.826l-6.121 6.121a1.334 1.334 0 1 1-1.88-1.894l6.119-6.106z"/><path d="M26.595 16.945a1.332 1.332 0 0 0 0-1.89l-6.119-6.109a1.333 1.333 0 0 1 1.88-1.89l6.121 6.119c.723.724 1.169 1.723 1.169 2.826s-.447 2.103-1.169 2.826l-6.121 6.121a1.334 1.334 0 1 1-1.88-1.894l6.119-6.106z"/></symbol><symbol id="icon-angle" viewBox="0 0 32 32"><path d="M15.053 17.867a1.333 1.333 0 0 0 1.894 0l6.106-6.12a1.334 1.334 0 1 1 1.894 1.88l-6.12 6.12c-.724.723-1.723 1.17-2.827 1.17s-2.103-.447-2.827-1.17l-6.12-6.12a1.334 1.334 0 1 1 1.894-1.88l6.106 6.12z"/></symbol><symbol id="icon-arrow" viewBox="0 0 32 32"><path stroke-linejoin="round" stroke-linecap="round" stroke-width="3.2" d="M5.333 16h21.333m0 0-8-8m8 8-8 8"/></symbol><symbol id="icon-cart" viewBox="0 0 32 32"><path d="M25.333 9.333h-4V8a5.334 5.334 0 1 0-10.668 0v1.333h-4c-.736 0-1.333.597-1.333 1.333V25.334a4 4 0 0 0 4 4h13.333a4 4 0 0 0 4-4V10.668c0-.736-.597-1.334-1.333-1.334zM13.333 8l-.001-.065a2.667 2.667 0 1 1 5.334 0l-.001.069v-.003 1.333h-5.333V8.001zM24 25.333v.002c0 .736-.597 1.333-1.333 1.333H9.332a1.333 1.333 0 0 1-1.333-1.333V12h2.666v1.333a1.334 1.334 0 1 0 2.668 0V12h5.333v1.333a1.334 1.334 0 1 0 2.668 0V12h2.667v13.333z"/></symbol><symbol id="icon-burger" viewBox="0 0 32 32"><path stroke-linejoin="round" stroke-linecap="round" stroke-width="2.286" d="M22.666 13.334H4M28 8H4m24 10.666H4M22.666 24H4"/></symbol><symbol id="icon-logo-2" viewBox="0 0 125 32"><path fill="#f6f6f6" style="fill:var(--color1,#f6f6f6)" d="m0 2.286 14.008 13.862 13.421 13.567V2.286H0z"/><path fill="#f6f6f6" style="fill:var(--color1,#f6f6f6)" d="m3.821 5.91 10.237 10.139 9.649 9.845H3.821V5.91z"/><path fill="#4f2ee8" style="fill:var(--color2,#4f2ee8)" d="M23.771 25.959 13.533 15.82 3.885 5.975h19.886v19.984z"/><path fill="#4f2ee8" style="fill:var(--color2,#4f2ee8)" d="m7.934 10.024 11.657 11.658H7.934V10.025z"/><path fill="#f6f6f6" style="fill:var(--color1,#f6f6f6)" d="m7.934 10.024 11.657 11.658V10.025H7.934z"/><path style="fill:var(--color3,#000)" d="M47.659 12.266c0-2.366-1.749-3.703-4.773-3.703h-6.315v14.709h6.665c3.045 0 4.999-1.461 4.999-4.299 0-2.201-1.317-3.333-2.859-3.6v-.041c1.214-.411 2.283-1.255 2.283-3.065zm-8.64 2.387v-4.011h3.929c1.461 0 2.263.72 2.263 2.016s-.658 1.995-2.407 1.995h-3.785zm0 1.83h4.299c1.543 0 2.469.843 2.469 2.345 0 1.378-.638 2.366-2.736 2.366h-4.032v-4.711zm15.498 7.098c-3.291 0-5.287-2.283-5.287-5.554s1.995-5.554 5.287-5.554c3.291 0 5.287 2.283 5.287 5.554s-1.995 5.554-5.287 5.554zm0-1.77c2.057 0 3.127-1.625 3.127-3.785 0-2.181-1.07-3.785-3.127-3.785s-3.127 1.605-3.127 3.785c0 2.16 1.07 3.785 3.127 3.785zm11.51 1.77c-3.291 0-5.287-2.283-5.287-5.554s1.995-5.554 5.287-5.554c3.291 0 5.287 2.283 5.287 5.554s-1.995 5.554-5.287 5.554zm0-1.77c2.057 0 3.127-1.625 3.127-3.785 0-2.181-1.07-3.785-3.127-3.785S62.9 15.846 62.9 18.026c0 2.16 1.07 3.785 3.127 3.785zm6.78-13.248v14.709h2.16v-3.806l1.461-1.378 3.312 5.184h2.592l-4.423-6.603L81.9 12.76h-2.654l-4.279 4.217V8.563h-2.16zm14.731 8.352c-1.522-.35-2.695-.432-2.695-1.502 0-.741.699-1.234 1.995-1.234 1.687 0 2.098.843 2.242 1.666h2.098c-.144-1.831-1.502-3.374-4.361-3.374-2.633 0-4.155 1.378-4.155 3.106 0 2.386 2.263 2.715 3.929 3.106 1.543.37 2.798.473 2.798 1.79 0 .658-.638 1.399-2.139 1.399-2.222 0-2.715-.967-2.818-2.098h-2.098c.103 2.222 1.563 3.806 4.958 3.806 2.551 0 4.279-1.255 4.279-3.271 0-2.51-2.098-2.942-4.032-3.394zm11.095-4.443c-1.769 0-2.859.823-3.415 1.646h-.041V8.564h-2.16v14.709h2.16v-6.398c0-1.563 1.131-2.571 2.715-2.571 1.502 0 2.098.905 2.098 2.325v6.645h2.181v-7.262c0-2.407-1.543-3.538-3.538-3.538zm10.162 9.339c-1.913 0-3.045-1.461-3.045-3.23h8.064c0-3.744-1.666-6.11-5.061-6.11-3.168 0-5.163 2.139-5.163 5.554 0 3.291 1.995 5.554 5.266 5.554 2.695 0 4.258-1.522 4.793-3.518h-2.16c-.185.638-.905 1.749-2.695 1.749zm-.041-7.632c1.749 0 2.901 1.173 2.901 2.798h-5.904c0-1.625 1.255-2.798 3.003-2.798zm6.583-5.616v14.709h2.181V8.563h-2.181zm9.236 1.77V8.564a7.32 7.32 0 0 0-1.438-.144h-.002c-1.728 0-2.674.782-2.674 3.003v1.337h-1.502v1.769h1.502v8.743h2.181v-8.743h1.934V12.76h-1.934v-1.152c0-1.193.535-1.337 1.934-1.275z"/></symbol></defs></svg>